<?xml version="1.0" encoding="utf-8"?>
<!-- Generator: Adobe Illustrator 16.0.0, SVG Export Plug-In . SVG Version: 6.00 Build 0)  -->
<!DOCTYPE svg PUBLIC "-//W3C//DTD SVG 1.1//EN" "http://www.w3.org/Graphics/SVG/1.1/DTD/svg11.dtd">
<svg version="1.1" id="Ebene_1" xmlns="http://www.w3.org/2000/svg" xmlns:xlink="http://www.w3.org/1999/xlink" x="0px" y="0px"
	 width="1280px" height="1280px" viewBox="0 0 1280 1280" enable-background="new 0 0 1280 1280" xml:space="preserve">
<rect fill="#58BCE8" width="1280" height="1280"/>
<g>
	<path d="M90.635,590.241c12.244,0,22.957-3.348,32.14-10.057c9.183-6.704,16.835-15.523,22.957-26.456
		c6.122-10.932,10.713-23.395,13.774-37.388c3.061-13.993,4.592-28.272,4.592-42.853v-197.65c0-18.366,2.691-34.689,8.089-48.976
		c5.392-14.279,12.389-26.381,20.989-36.294c8.595-9.906,18.434-17.417,29.517-22.52c11.076-5.097,22.301-7.652,33.67-7.652h59.907
		v55.098h-30.172c-15.742,0-26.606,7.652-32.578,22.957c-5.977,15.305-8.964,36.663-8.964,64.061v187.156
		c0,18.079-1.9,34.108-5.685,48.101c-3.792,13.993-8.964,26.237-15.524,36.731c-6.559,10.495-14.286,19.24-23.175,26.238
		c-8.896,6.996-18.584,12.394-29.079,16.179v1.749c10.495,3.791,20.183,9.183,29.079,16.179c8.89,6.996,16.616,15.742,23.175,26.236
		c6.56,10.495,11.732,22.813,15.524,36.95c3.785,14.145,5.685,30.104,5.685,47.883v182.782c0,27.397,2.987,48.757,8.964,64.062
		c5.971,15.305,16.835,22.957,32.578,22.957h30.172v55.534h-59.907c-11.37,0-22.595-2.556-33.67-7.651
		c-11.083-5.104-20.922-12.613-29.517-22.521c-8.601-9.913-15.598-22.015-20.989-36.295c-5.398-14.285-8.089-30.609-8.089-48.975
		V762.092c0-14.574-1.531-28.787-4.592-42.635c-3.061-13.843-7.652-26.237-13.774-37.169c-6.122-10.933-13.774-19.746-22.957-26.455
		c-9.183-6.704-19.896-10.058-32.14-10.058V590.241z"/>
	<path d="M389.733,853.482c0-7.578,1.531-14.793,4.592-21.645c3.061-6.846,7.215-12.826,12.462-17.929
		c5.247-5.097,11.295-9.184,18.147-12.244c6.846-3.061,14.211-4.591,22.083-4.591c7.578,0,14.793,1.53,21.645,4.591
		c6.846,3.061,12.826,7.147,17.929,12.244c5.096,5.103,9.183,11.083,12.244,17.929c3.061,6.852,4.591,14.066,4.591,21.645
		c0,7.87-1.53,15.305-4.591,22.301c-3.061,6.997-7.147,13.193-12.244,18.585c-5.103,5.397-11.083,9.62-17.929,12.681
		c-6.852,3.062-14.067,4.593-21.645,4.593c-7.871,0-15.237-1.531-22.083-4.593c-6.852-3.061-12.9-7.283-18.147-12.681
		c-5.248-5.392-9.402-11.588-12.462-18.585C391.264,868.787,389.733,861.353,389.733,853.482z"/>
	<path d="M589.133,853.482c0-7.578,1.53-14.793,4.591-21.645c3.061-6.846,7.215-12.826,12.462-17.929
		c5.248-5.097,11.295-9.184,18.147-12.244c6.846-3.061,14.211-4.591,22.083-4.591c7.578,0,14.793,1.53,21.646,4.591
		c6.846,3.061,12.825,7.147,17.929,12.244c5.096,5.103,9.183,11.083,12.244,17.929c3.061,6.852,4.591,14.066,4.591,21.645
		c0,7.87-1.53,15.305-4.591,22.301c-3.062,6.997-7.148,13.193-12.244,18.585c-5.104,5.397-11.083,9.62-17.929,12.681
		c-6.853,3.062-14.067,4.593-21.646,4.593c-7.871,0-15.236-1.531-22.083-4.593c-6.852-3.061-12.899-7.283-18.147-12.681
		c-5.247-5.392-9.401-11.588-12.462-18.585C590.663,868.787,589.133,861.353,589.133,853.482z"/>
	<path d="M788.531,853.482c0-7.578,1.531-14.793,4.592-21.645c3.062-6.846,7.216-12.826,12.463-17.929
		c5.248-5.097,11.295-9.184,18.146-12.244c6.847-3.061,14.212-4.591,22.083-4.591c7.578,0,14.793,1.53,21.646,4.591
		c6.846,3.061,12.825,7.147,17.929,12.244c5.096,5.103,9.183,11.083,12.243,17.929c3.062,6.852,4.592,14.066,4.592,21.645
		c0,7.87-1.53,15.305-4.592,22.301c-3.061,6.997-7.147,13.193-12.243,18.585c-5.104,5.397-11.083,9.62-17.929,12.681
		c-6.853,3.062-14.067,4.593-21.646,4.593c-7.871,0-15.236-1.531-22.083-4.593c-6.852-3.061-12.898-7.283-18.146-12.681
		c-5.247-5.392-9.401-11.588-12.463-18.585C790.062,868.787,788.531,861.353,788.531,853.482z"/>
	<path fill="#FFFFFF" d="M977.437,1071.247v-55.534h30.172c15.742,0,26.6-7.652,32.577-22.957
		c5.972-15.305,8.964-36.664,8.964-64.062V745.912c0-17.778,1.895-33.738,5.686-47.883c3.784-14.137,8.964-26.455,15.523-36.95
		c6.559-10.494,14.278-19.24,23.176-26.236c8.89-6.996,18.434-12.388,28.642-16.179v-1.749
		c-10.208-3.785-19.752-9.183-28.642-16.179c-8.897-6.998-16.617-15.743-23.176-26.238c-6.56-10.495-11.739-22.738-15.523-36.731
		c-3.791-13.993-5.686-30.021-5.686-48.101V302.511c0-27.397-2.992-48.756-8.964-64.061c-5.978-15.305-16.835-22.957-32.577-22.957
		h-30.172v-55.098h59.907c11.369,0,22.587,2.556,33.67,7.652c11.077,5.103,20.916,12.613,29.517,22.52
		c8.595,9.913,15.592,22.015,20.989,36.294c5.393,14.286,8.09,30.609,8.09,48.976v197.65c0,14.581,1.53,28.86,4.591,42.853
		c3.062,13.993,7.653,26.456,13.775,37.388s13.773,19.752,22.956,26.456c9.183,6.709,19.896,10.057,32.141,10.057v55.535
		c-12.244,0-22.958,3.354-32.141,10.058c-9.183,6.709-16.834,15.522-22.956,26.455c-6.122,10.932-10.714,23.326-13.775,37.169
		c-3.061,13.848-4.591,28.061-4.591,42.635v193.714c0,18.365-2.697,34.689-8.09,48.975c-5.397,14.28-12.395,26.382-20.989,36.295
		c-8.601,9.907-18.439,17.417-29.517,22.521c-11.083,5.096-22.301,7.651-33.67,7.651H977.437z"/>
</g>
</svg>
